<svg xmlns="http://www.w3.org/2000/svg" width="110.01" height="306.054" viewBox="0 0 110.01 306.054">
  <path id="R" d="M108.591,248.374l-19.154-1.431L67.161,201.513q-3-6.206-5.814-10.589-2.8-4.365-5.718-7.149t-6.245-4.093q-3.321-1.314-7.458-1.412l-12-.285V242.5l-14.3-1.069V91.49l37.1-1.676q8.444-.381,15.672,1.853,7.309,2.259,12.74,7.317,5.476,5.1,8.586,12.915,3.124,7.852,3.124,18.51,0,8.326-2.132,15.268-2.125,6.92-6.026,12.313-3.878,5.361-9.307,9.077Q70,170.753,63.34,172.7v.434q3.274,1.8,5.695,4.09t4.638,5.411q2.216,3.127,4.393,7.087t4.89,9.246ZM29.93,106.918V161.91l19.943.22q5.622.062,10.435-1.943,4.849-2.02,8.407-5.861,3.577-3.863,5.6-9.5,2.033-5.651,2.033-12.668,0-6.3-1.717-11.176t-5.142-8.318q-3.39-3.4-8.256-5.006t-11.186-1.4Z" fill="#51e8ef"/>
</svg>
